<?xml version="1.0" encoding="UTF-8"?><svg id="Layer_2" xmlns="http://www.w3.org/2000/svg" viewBox="0 0 219.94 167.46"><defs><style>.cls-1{fill:#ffffff;stroke:#ffffff;stroke-miterlimit:10;}</style></defs><g id="tablet"><path class="cls-1" d="M119.02.5H5.7C2.83.5.5,2.83.5,5.69v156.07c0,2.87,2.33,5.2,5.2,5.2h113.32c2.87,0,5.19-2.33,5.19-5.2V5.69c0-2.87-2.32-5.19-5.19-5.19ZM120.37,158.88c0,2.29-1.85,4.15-4.15,4.15H8.5c-2.29,0-4.15-1.85-4.15-4.15V8.58c0-2.29,1.85-4.15,4.15-4.15h107.72c2.3,0,4.15,1.85,4.15,4.15v150.3Z"/><rect class="cls-1" x="33.61" y="7.39" width="58.68" height="3.93" rx="1.97" ry="1.97"/></g><g id="phone"><path class="cls-1" d="M212.76,27.34h-48.93c-3.69,0-6.68,2.99-6.68,6.68v99.42c0,3.69,2.99,6.68,6.68,6.68h48.93c3.69,0,6.68-2.99,6.68-6.68V34.02c0-3.69-2.99-6.68-6.68-6.68ZM217.47,133.33c0,2.69-2.18,4.88-4.88,4.88h-48.41c-2.69,0-4.88-2.18-4.88-4.88V33.83c0-2.69,2.18-4.88,4.88-4.88h48.41c2.69,0,4.88,2.18,4.88,4.88v99.5Z"/><rect class="cls-1" x="175.75" y="31.14" width="27.07" height="2.68" rx="1.06" ry="1.06"/></g></svg>