<?xml version="1.0" encoding="UTF-8"?><svg id="Layer_2" xmlns="http://www.w3.org/2000/svg" viewBox="0 0 114.27 173.06"><defs><style>.cls-1{fill:#ffffff;stroke-width:0px;}</style></defs><g id="file"><path class="cls-1" d="M111.45,30.61h-19.94c-3.25,0-5.88-2.81-5.88-6.29V3.02c0-1.67,1.27-3.02,2.83-3.02l25.83,27.58c0,1.67-1.27,3.02-2.83,3.02Z"/><rect class="cls-1" x="15.08" y="42.64" width="9.05" height="6.39" rx="3.19" ry="3.19"/><rect class="cls-1" x="27.51" y="42.64" width="44.93" height="6.39" rx="3.19" ry="3.19"/><rect class="cls-1" x="15.08" y="58.17" width="84.11" height="6.84" rx="3.19" ry="3.19"/><rect class="cls-1" x="15.08" y="74.56" width="84.11" height="6.84" rx="3.19" ry="3.19"/><rect class="cls-1" x="41.83" y="91.1" width="9.05" height="6.39" rx="3.19" ry="3.19"/><rect class="cls-1" x="54.26" y="91.1" width="44.93" height="6.39" rx="3.19" ry="3.19"/><rect class="cls-1" x="15.08" y="107.19" width="84.11" height="6.84" rx="3.19" ry="3.19"/><rect class="cls-1" x="15.08" y="123.58" width="84.11" height="6.84" rx="3.19" ry="3.19"/><path class="cls-1" d="M2.12,84.26c.83,0,2.02-.39,2.12-1.95v-7.96c-.33-1.25-1.29-1.75-2.12-1.75h0c-.8,0-2.12.44-2.12,1.81v7.83c0,1.12,1.32,2.01,2.12,2.01h0Z"/><path class="cls-1" d="M90.05,0H6.11C2.74,0,0,2.74,0,6.11v60.83c0,1.12,1.29,1.68,2.09,1.68h0c.83,0,2.04-.21,2.15-1.62V9.99c0-3.21,2.53-5.81,5.66-5.81h77.72l22.42,25.53v133.14c0,3.21-2.53,5.81-5.66,5.81H9.9c-3.12,0-5.66-2.6-5.66-5.81v-59.18c.01-1.58-1.29-2.18-2.12-2.18h0c-.8,0-2.12.74-2.12,2.24v63.22c0,3.38,2.74,6.11,6.11,6.11h102.05c3.38,0,6.11-2.74,6.11-6.11V26.86L90.05,0Z"/></g></svg>