<?xml version="1.0" encoding="UTF-8"?><svg id="Layer_2" xmlns="http://www.w3.org/2000/svg" viewBox="0 0 483.85 140.03"><defs><style>.cls-1{fill:#fff;stroke-width:0px;}</style></defs><g id="phone"><path class="cls-1" d="M70.02,0C35.06,0,6.1,25.61.85,59.09h18.48c2.2,0,3.98,1.78,3.98,3.98s-1.78,3.98-3.98,3.98H.08c-.04.99-.08,1.97-.08,2.97,0,.66.03,1.3.05,1.96h9.2c2.2,0,3.98,1.78,3.98,3.98s-1.78,3.98-3.98,3.98H.71c.24,1.66.53,3.3.88,4.93h17.74c2.2,0,3.98,1.78,3.98,3.98s-1.78,3.98-3.98,3.98H3.81c9.46,27.47,35.52,47.22,66.2,47.22,38.67,0,70.02-31.35,70.02-70.02S108.68,0,70.02,0ZM108.14,47.05l-34.68,32.87-36-32.87h70.68ZM119.04,54.03v46.54c0,3.85-3.12,6.98-6.98,6.98H34.86c-3.85,0-6.98-3.12-6.98-6.98v-46.54c0-3.85-.73-6.98,3.12-6.98l42.45,40.14,42.28-40.14c3.85,0,3.3,3.12,3.3,6.98Z"/><path class="cls-1" d="M227.59,70.7v-1.04l-41.66-41.66c-8.8,11.7-14.01,26.25-14.01,42.02s5.27,30.47,14.16,42.21l41.52-41.52Z"/><polygon class="cls-1" points="249.55 48.74 235.95 35.14 235.95 62.34 249.55 48.74"/><polygon class="cls-1" points="235.95 78.03 235.95 105.05 249.47 91.54 235.95 78.03"/><path class="cls-1" d="M241.93,0c-19.88,0-37.81,8.3-50.56,21.61l36.22,36.22V25.04c0-.27.03-.55.08-.82.02-.12.07-.24.11-.36.04-.14.07-.29.13-.42.06-.14.14-.27.21-.4.06-.11.11-.22.17-.32.31-.46.7-.85,1.16-1.16.1-.07.22-.12.33-.18.13-.07.26-.15.39-.21.14-.06.28-.09.43-.13.12-.03.23-.08.35-.1.27-.05.54-.08.82-.08,0,0,0,0,0,0h0c.27,0,.55.03.82.08.12.02.23.07.35.1.14.04.29.08.43.13.14.06.26.14.39.21.11.06.22.11.33.18.23.15.44.33.64.52l23.06,23.06c.25.16.49.34.71.56.84.84,1.24,1.94,1.22,3.03.02,1.09-.38,2.19-1.22,3.03-.22.22-.46.4-.71.56l-17.85,17.85,17.5,17.5c.38.19.74.43,1.05.75.86.86,1.25,1.99,1.21,3.11.04,1.12-.35,2.26-1.21,3.11-.32.32-.68.55-1.05.75l-22.14,22.14c-.74,1.18-2.04,1.97-3.54,1.97-2.31,0-4.18-1.87-4.18-4.18v-32.78l-36.06,36.06c12.74,13.21,30.6,21.44,50.4,21.44,38.67,0,70.02-31.35,70.02-70.02S280.6,0,241.93,0Z"/><path class="cls-1" d="M356.99,90.84l-.26-.54c-1.25-2.64-.42-5.54,1.78-6.22l12.84-3.96c1.88-.58,4.12.68,5.19,2.94l.4.84,70.45-35.21-.67-1.4c-1.07-2.25-.63-4.77,1.02-5.85l11.23-7.36c1.93-1.26,4.71-.06,5.96,2.58l.05.11,8.11-4.01C460.7,13.08,438.8,0,413.84,0c-38.67,0-70.02,31.35-70.02,70.02,0,8.83,1.65,17.27,4.63,25.05l8.54-4.22Z"/><path class="cls-1" d="M474.53,35.12l-8.36,4.13.72,1.52,6.66-3.3c.5-.25,1.18.1,1.53.79.34.68.22,1.43-.28,1.68l-6.72,3.32.78,1.65,8.55-4.23c-.88-1.9-1.84-3.76-2.89-5.57Z"/><path class="cls-1" d="M360.89,99.05l-.75-1.57-6.2,3.07c-.47.23-1.13-.13-1.47-.81-.34-.68-.24-1.42.23-1.66l6.26-3.1-.78-1.65-8.5,4.2c-.07.03-.14.03-.21.04.84,1.95,1.75,3.85,2.75,5.7l8.49-4.2c.05-.03.12-.02.18-.03Z"/><path class="cls-1" d="M478.53,43.22l-8.49,4.2.26.54c1.25,2.64.42,5.54-1.79,6.22l-12.84,3.96c-1.88.58-4.12-.68-5.19-2.94l-.42-.89-70.45,35.21.69,1.45c1.07,2.25.63,4.77-1.02,5.85l-11.23,7.36c-1.93,1.26-4.71.06-5.96-2.58l-.07-.14s-.05.06-.09.08l-8.36,4.13c12.2,20.56,34.61,34.35,60.25,34.35,38.67,0,70.02-31.35,70.02-70.02,0-9.49-1.9-18.54-5.32-26.8Z"/></g></svg>