<?xml version="1.0" encoding="UTF-8"?><svg id="Layer_2" xmlns="http://www.w3.org/2000/svg" viewBox="0 0 102.06 183.97"><defs><style>.cls-1{stroke:#ffffff;stroke-miterlimit:10;}.cls-1,.cls-2{fill:#ffffff;}.cls-2{stroke-width:0px;}</style></defs><g id="phone_file"><path class="cls-1" d="M90.72.5H11.34C5.35.5.5,5.35.5,11.34v161.29c0,5.99,4.85,10.84,10.84,10.84h79.38c5.99,0,10.84-4.85,10.84-10.84V11.34c0-5.99-4.85-10.84-10.84-10.84ZM98.38,172.45c0,4.37-3.54,7.91-7.91,7.91H11.93c-4.37,0-7.91-3.54-7.91-7.91V11.02c0-4.37,3.54-7.91,7.91-7.91h78.53c4.37,0,7.91,3.54,7.91,7.91v161.43Z"/><rect class="cls-1" x="30.68" y="6.66" width="43.92" height="4.35" rx="2.18" ry="2.18"/><path class="cls-2" d="M86.89,55.98h-13.1c-2.14,0-3.87-1.98-3.87-4.43v-15.02c0-1.18.83-2.13,1.86-2.13l16.97,19.45c0,1.18-.83,2.13-1.86,2.13Z"/><rect class="cls-2" x="23.56" y="64.47" width="5.95" height="4.5" rx="2.25" ry="2.25"/><rect class="cls-2" x="31.73" y="64.47" width="29.52" height="4.5" rx="2.25" ry="2.25"/><rect class="cls-2" x="23.56" y="75.41" width="55.27" height="4.82" rx="2.41" ry="2.41"/><rect class="cls-2" x="23.56" y="86.97" width="55.27" height="4.82" rx="2.41" ry="2.41"/><rect class="cls-2" x="41.14" y="98.63" width="5.95" height="4.5" rx="2.25" ry="2.25"/><rect class="cls-2" x="49.31" y="98.63" width="29.52" height="4.5" rx="2.25" ry="2.25"/><rect class="cls-2" x="23.56" y="109.98" width="55.27" height="4.82" rx="2.41" ry="2.41"/><rect class="cls-2" x="23.56" y="121.54" width="55.27" height="4.82" rx="2.41" ry="2.41"/><path class="cls-2" d="M15.04,93.81c.55,0,1.33-.27,1.39-1.38v-5.61c-.22-.88-.84-1.23-1.39-1.23h0c-.53,0-1.39.31-1.39,1.27v5.52c0,.79.87,1.42,1.39,1.42h0Z"/><path class="cls-2" d="M72.83,34.4H17.67c-2.22,0-4.02,1.93-4.02,4.31v42.89c0,.79.85,1.19,1.37,1.19h0c.55,0,1.34-.15,1.41-1.14v-40.2c0-2.26,1.66-4.1,3.72-4.1h51.07l14.74,18v93.87c0,2.26-1.66,4.1-3.72,4.1H20.16c-2.05,0-3.72-1.83-3.72-4.1v-41.73c0-1.11-.84-1.54-1.39-1.54h0c-.53,0-1.39.52-1.39,1.58v44.58c0,2.38,1.8,4.31,4.02,4.31h67.06c2.22,0,4.02-1.93,4.02-4.31V53.34l-15.92-18.94Z"/></g></svg>