<?xml version="1.0" encoding="UTF-8"?><svg id="Layer_2" xmlns="http://www.w3.org/2000/svg" viewBox="0 0 499.42 237.14"><defs><style>.cls-1{stroke:#ffffff;stroke-miterlimit:10;}.cls-1,.cls-2{fill:#ffffff;}.cls-2{stroke-width:0px;}</style></defs><g id="laptop"><path class="cls-1" d="M209.78,21.87H32.86c-3.13,0-5.66,2.53-5.66,5.66v125.79h188.26V27.55c0-3.13-2.54-5.68-5.68-5.68ZM121.01,23.94c.67,0,1.22.55,1.22,1.22s-.55,1.22-1.22,1.22-1.22-.55-1.22-1.22.55-1.22,1.22-1.22ZM210.17,150.68H32.27V28.7h177.89s.02,0,.02.02v121.96Z"/><path class="cls-1" d="M241.65,230.06l-26.3-74.76H27.09L.56,230.26c-.61,2.87,3.52,5.79,7.05,5.79h228.6c3.78,0,6.5-2.99,5.44-5.99ZM146.65,233.3h-48.83c-1.81,0-3.18-1.17-2.87-2.46l3.27-13.69c.24-1.01,1.45-1.74,2.87-1.74h41.41c1.37,0,2.56.69,2.85,1.65l4.15,13.69c.4,1.31-.99,2.55-2.85,2.55ZM224.06,212.6H20.54c-3.14,0-6.82-1.95-6.27-3.88l16.68-50.18h180.99l16.97,50.05c.94,2.01-1.48,4.01-4.85,4.01Z"/><rect class="cls-2" x="73.67" y="202.02" width="81.57" height="7.5" rx="1.85" ry="1.85"/><rect class="cls-2" x="85.29" y="192.6" width="9.08" height="7.5" rx="1.85" ry="1.85"/><rect class="cls-2" x="96.43" y="192.6" width="9.08" height="7.5" rx="1.85" ry="1.85"/><rect class="cls-2" x="90.82" y="184.17" width="9.08" height="7.5" rx="1.85" ry="1.85"/><rect class="cls-2" x="95.36" y="175.75" width="9.08" height="7.5" rx="1.85" ry="1.85"/><rect class="cls-2" x="91.02" y="167.15" width="9.08" height="7.5" rx="1.85" ry="1.85"/><rect class="cls-2" x="35.9" y="161.05" width="170.88" height="4.33" rx="1.85" ry="1.85"/><rect class="cls-2" x="107.58" y="192.6" width="9.08" height="7.5" rx="1.85" ry="1.85"/><rect class="cls-2" x="101.96" y="184.17" width="9.08" height="7.5" rx="1.85" ry="1.85"/><rect class="cls-2" x="106.51" y="175.75" width="9.08" height="7.5" rx="1.85" ry="1.85"/><rect class="cls-2" x="102.17" y="167.15" width="9.08" height="7.5" rx="1.85" ry="1.85"/><rect class="cls-2" x="117.86" y="192.41" width="9.08" height="7.5" rx="1.85" ry="1.85"/><rect class="cls-2" x="112.24" y="183.99" width="9.08" height="7.5" rx="1.85" ry="1.85"/><rect class="cls-2" x="116.79" y="175.57" width="9.08" height="7.5" rx="1.85" ry="1.85"/><rect class="cls-2" x="112.45" y="166.96" width="9.08" height="7.5" rx="1.85" ry="1.85"/><rect class="cls-2" x="129" y="192.41" width="9.08" height="7.5" rx="1.85" ry="1.85"/><rect class="cls-2" x="123.39" y="183.99" width="9.08" height="7.5" rx="1.85" ry="1.85"/><rect class="cls-2" x="127.93" y="175.57" width="9.08" height="7.5" rx="1.85" ry="1.85"/><rect class="cls-2" x="123.6" y="166.96" width="9.08" height="7.5" rx="1.85" ry="1.85"/><rect class="cls-2" x="139.16" y="192.32" width="9.08" height="7.5" rx="1.85" ry="1.85"/><rect class="cls-2" x="133.55" y="183.9" width="9.08" height="7.5" rx="1.85" ry="1.85"/><rect class="cls-2" x="138.09" y="175.48" width="9.08" height="7.5" rx="1.85" ry="1.85"/><rect class="cls-2" x="133.75" y="166.87" width="9.08" height="7.5" rx="1.85" ry="1.85"/><rect class="cls-2" x="150.31" y="192.32" width="9.08" height="7.5" rx="1.85" ry="1.85"/><rect class="cls-2" x="144.69" y="183.9" width="9.08" height="7.5" rx="1.85" ry="1.85"/><rect class="cls-2" x="149.23" y="175.48" width="9.08" height="7.5" rx="1.85" ry="1.85"/><rect class="cls-2" x="144.9" y="166.87" width="9.08" height="7.5" rx="1.85" ry="1.85"/><rect class="cls-2" x="160.59" y="192.13" width="9.08" height="7.5" rx="1.85" ry="1.85"/><rect class="cls-2" x="154.97" y="183.71" width="9.08" height="7.5" rx="1.85" ry="1.85"/><rect class="cls-2" x="159.51" y="175.29" width="9.08" height="7.5" rx="1.85" ry="1.85"/><rect class="cls-2" x="155.18" y="166.69" width="9.08" height="7.5" rx="1.85" ry="1.85"/><rect class="cls-2" x="171.73" y="192.13" width="9.08" height="7.5" rx="1.85" ry="1.85"/><rect class="cls-2" x="166.12" y="183.71" width="9.08" height="7.5" rx="1.85" ry="1.85"/><rect class="cls-2" x="170.66" y="175.29" width="9.08" height="7.5" rx="1.85" ry="1.85"/><rect class="cls-2" x="166.32" y="166.69" width="9.08" height="7.5" rx="1.85" ry="1.85"/><rect class="cls-2" x="52.71" y="192.78" width="9.08" height="7.5" rx="1.85" ry="1.85"/><rect class="cls-2" x="47.1" y="184.36" width="9.08" height="7.5" rx="1.85" ry="1.85"/><rect class="cls-2" x="51.64" y="175.93" width="9.08" height="7.5" rx="1.85" ry="1.85"/><rect class="cls-2" x="63.39" y="192.78" width="9.08" height="7.5" rx="1.85" ry="1.85"/><rect class="cls-2" x="58.25" y="184.36" width="9.08" height="7.5" rx="1.85" ry="1.85"/><rect class="cls-2" x="62.79" y="175.93" width="9.08" height="7.5" rx="1.85" ry="1.85"/><rect class="cls-2" x="58.45" y="167.33" width="9.08" height="7.5" rx="1.85" ry="1.85"/><rect class="cls-2" x="73.67" y="192.59" width="9.08" height="7.5" rx="1.85" ry="1.85"/><rect class="cls-2" x="68.53" y="184.17" width="9.08" height="7.5" rx="1.85" ry="1.85"/><rect class="cls-2" x="73.07" y="175.75" width="9.08" height="7.5" rx="1.85" ry="1.85"/><rect class="cls-2" x="68.73" y="167.14" width="9.08" height="7.5" rx="1.85" ry="1.85"/><rect class="cls-2" x="79.67" y="184.17" width="9.08" height="7.5" rx="1.85" ry="1.85"/><rect class="cls-2" x="84.21" y="175.75" width="9.08" height="7.5" rx="1.85" ry="1.85"/><rect class="cls-2" x="79.88" y="167.14" width="9.08" height="7.5" rx="1.85" ry="1.85"/><rect class="cls-2" x="22.43" y="193.05" width="16.94" height="7.5" rx="1.85" ry="1.85"/><rect class="cls-2" x="24.75" y="184.45" width="9.08" height="7.5" rx="1.85" ry="1.85"/><rect class="cls-2" x="29.3" y="176.02" width="9.08" height="7.5" rx="1.85" ry="1.85"/><rect class="cls-2" x="41.52" y="192.87" width="9.08" height="7.5" rx="1.85" ry="1.85"/><rect class="cls-2" x="35.9" y="184.45" width="9.08" height="7.5" rx="1.85" ry="1.85"/><rect class="cls-2" x="40.44" y="176.02" width="9.08" height="7.5" rx="1.85" ry="1.85"/><rect class="cls-2" x="36.11" y="167.42" width="20.57" height="7.5" rx="1.85" ry="1.85"/><rect class="cls-2" x="181.89" y="192.13" width="9.08" height="7.5" rx="1.85" ry="1.85"/><rect class="cls-2" x="176.27" y="183.71" width="9.08" height="7.5" rx="1.85" ry="1.85"/><rect class="cls-2" x="180.82" y="175.29" width="9.08" height="7.5" rx="1.85" ry="1.85"/><rect class="cls-2" x="176.48" y="166.69" width="9.08" height="7.5" rx="1.85" ry="1.85"/><rect class="cls-2" x="193.04" y="192.13" width="9.08" height="7.5" rx="1.85" ry="1.85"/><rect class="cls-2" x="187.42" y="183.71" width="9.08" height="7.5" rx="1.85" ry="1.85"/><rect class="cls-2" x="191.96" y="175.29" width="9.08" height="7.5" rx="1.85" ry="1.85"/><rect class="cls-2" x="197.7" y="183.53" width="9.08" height="7.5" rx="1.85" ry="1.85"/><rect class="cls-2" x="202.24" y="175.11" width="9.08" height="7.5" rx="1.85" ry="1.85"/><rect class="cls-2" x="187.42" y="166.5" width="19.57" height="7.5" rx="1.85" ry="1.85"/><rect class="cls-2" x="204.38" y="191.95" width="15.93" height="7.5" rx="1.85" ry="1.85"/><rect class="cls-2" x="208.85" y="183.53" width="9.08" height="7.5" rx="1.85" ry="1.85"/><rect class="cls-2" x="156.15" y="202.11" width="9.08" height="7.5" rx="1.85" ry="1.85"/><rect class="cls-2" x="167.29" y="202.11" width="9.08" height="7.5" rx="1.85" ry="1.85"/><rect class="cls-2" x="177.45" y="202.11" width="9.08" height="7.5" rx="1.85" ry="1.85"/><rect class="cls-2" x="199.65" y="201.92" width="9.2" height="3.22" rx="1.04" ry="1.04"/><rect class="cls-2" x="199.65" y="205.96" width="9.2" height="3.22" rx="1.04" ry="1.04"/><rect class="cls-2" x="210.31" y="205.96" width="8.51" height="3.22" rx="1.04" ry="1.04"/><rect class="cls-2" x="189.2" y="205.96" width="8.51" height="3.22" rx="1.04" ry="1.04"/><rect class="cls-2" x="43.63" y="202.07" width="9.08" height="7.5" rx="1.85" ry="1.85"/><rect class="cls-2" x="55.42" y="202.34" width="16.45" height="7.5" rx="1.85" ry="1.85"/><rect class="cls-2" x="22.08" y="202.34" width="8.82" height="7.5" rx="1.85" ry="1.85"/><rect class="cls-2" x="32.43" y="202.34" width="9.08" height="7.5" rx="1.85" ry="1.85"/></g><g id="desktop"><rect class="cls-2" x="360.85" y="188.56" width="36.04" height="33.38"/><path class="cls-2" d="M417.65,237.14h-76.74c-4.49,0-7.74-3.53-6.52-7.09l8.45-24.61h73.14l8.1,24.8c1.14,3.48-2.05,6.91-6.43,6.91Z"/><path class="cls-2" d="M258.32,167.89v18.48c0,3.19,2.59,5.77,5.77,5.77h229.51c3.21,0,5.81-2.6,5.81-5.81v-18.45h-241.1ZM378.87,185.14c-3.7,0-6.7-3-6.7-6.7s3-6.7,6.7-6.7,6.7,3,6.7,6.7-3,6.7-6.7,6.7Z"/><path class="cls-2" d="M492.02,0h-225.52c-4.52,0-8.18,3.66-8.18,8.18v156.95h241.1V7.4c0-4.09-3.31-7.4-7.4-7.4ZM378.87,2.97c.93,0,1.69.76,1.69,1.69s-.76,1.69-1.69,1.69-1.69-.76-1.69-1.69.76-1.69,1.69-1.69ZM491.82,160.51h-226.9V9.56h226.9v150.96Z"/></g></svg>