<?xml version="1.0" encoding="UTF-8"?><svg id="Layer_2" xmlns="http://www.w3.org/2000/svg" viewBox="0 0 511.11 349.31"><defs><style>.cls-1{fill:#ffffff;stroke-width:0px;}</style></defs><g id="camera"><path class="cls-1" d="M483.12,37.22h-154.33l-11.12-25.98c-4.68-7.02-12.57-11.24-21.01-11.24h-93.48c-9.68,0-18.31,6.07-21.58,15.18l-7.91,22.04H27.99c-15.46,0-27.99,12.53-27.99,27.99v256.12c0,15.46,12.53,27.99,27.99,27.99h455.14c15.46,0,27.99-12.53,27.99-27.99V65.21c0-15.46-12.53-27.99-27.99-27.99ZM496.77,309.9c0,14.13-11.8,25.58-26.36,25.58H41.63c-14.56,0-26.36-11.45-26.36-25.58V75.82c0-14.13,11.8-25.58,26.36-25.58h147.34l7.07-19.23c3.08-8.32,0-14.88,26.81-14.79h58.22c21-.08,17.54,2.65,21.95,9.07l10.98,24.95h156.4c14.56,0,26.36,11.45,26.36,25.58v234.08Z"/><rect class="cls-1" x="432.65" y="86.21" width="49.89" height="21.68" rx="1.85" ry="1.85"/><rect class="cls-1" x="432.65" y="180.88" width="49.89" height="21.68" rx="1.85" ry="1.85"/><rect class="cls-1" x="432.65" y="149.32" width="49.89" height="21.68" rx="1.85" ry="1.85"/><rect class="cls-1" x="432.65" y="117.77" width="49.89" height="21.68" rx="1.85" ry="1.85"/><rect class="cls-1" x="206.26" y="28.05" width="70.18" height="13.57" rx="1.85" ry="1.85"/><circle class="cls-1" cx="288.71" cy="34.84" r="6.79"/><circle class="cls-1" cx="255.55" cy="146.99" r="53.63"/><path class="cls-1" d="M202.3,204.43h106.61c15.54,0,28.15,12.62,28.15,28.15v72.29h-163.03v-72.18c0-15.6,12.66-28.26,28.26-28.26Z"/><rect class="cls-1" x="32.49" y="189.94" width="49.89" height="21.68" rx="1.85" ry="1.85"/><rect class="cls-1" x="32.49" y="284.61" width="49.89" height="21.68" rx="1.85" ry="1.85"/><rect class="cls-1" x="32.49" y="253.05" width="49.89" height="21.68" rx="1.85" ry="1.85"/><rect class="cls-1" x="32.49" y="221.5" width="49.89" height="21.68" rx="1.85" ry="1.85"/></g></svg>